<?xml version="1.0" encoding="UTF-8" standalone="no"?>
<svg width="800px" height="89px" viewBox="0 0 800 89" version="1.1" xmlns="http://www.w3.org/2000/svg" xmlns:xlink="http://www.w3.org/1999/xlink">
    <!-- Generator: Sketch 3.8.3 (29802) - http://www.bohemiancoding.com/sketch -->
    <title>logotype</title>
    <desc>Created with Sketch.</desc>
    <defs></defs>
    <g id="Page-1" stroke="none" stroke-width="1" fill="none" fill-rule="evenodd">
        <path d="M102.156522,87.4521739 L102.156522,1.41884058 L66.1695652,1.41884058 L51.0782609,42.6942029 L35.9869565,1.41884058 L0,1.41884058 L0,87.4521739 L26.0550725,87.4521739 L26.0550725,35.7289855 L45.273913,87.4521739 L56.8826087,87.4521739 L76.1014493,35.7289855 L76.1014493,87.4521739 L102.156522,87.4521739 Z M162.596415,89 C189.167429,89 209.676125,70.942029 209.676125,44.5 C209.676125,18.057971 189.167429,0 162.596415,0 C136.0254,0 115.516705,18.057971 115.516705,44.5 C115.516705,70.942029 136.0254,89 162.596415,89 L162.596415,89 Z M162.596415,66.0405797 C150.084821,66.0405797 141.958734,56.4956522 141.958734,44.5 C141.958734,32.5043478 150.084821,22.9594203 162.596415,22.9594203 C175.108009,22.9594203 183.234096,32.5043478 183.234096,44.5 C183.234096,56.4956522 175.108009,66.0405797 162.596415,66.0405797 L162.596415,66.0405797 Z M312.55225,44.5 C312.55225,18.057971 292.043555,0 265.47254,0 C238.901526,0 218.39283,18.057971 218.39283,44.5 C218.39283,70.942029 238.901526,89 265.47254,89 C292.043555,89 312.55225,70.942029 312.55225,44.5 Z M265.47254,66.0405797 C252.960946,66.0405797 244.834859,56.4956522 244.834859,44.5 C244.834859,32.5043478 252.960946,22.9594203 265.47254,22.9594203 C277.984134,22.9594203 286.110221,32.5043478 286.110221,44.5 C286.110221,56.4956522 277.984134,66.0405797 265.47254,66.0405797 L265.47254,66.0405797 Z M408.721129,87.4521739 L408.721129,1.41884058 L382.666056,1.41884058 L382.666056,42.1782609 L352.741419,1.41884058 L325.912433,1.41884058 L325.912433,87.4521739 L351.967506,87.4521739 L351.967506,43.8550725 L383.697941,87.4521739 L408.721129,87.4521739 Z M480.769718,87.4521739 C498.053776,87.4521739 506.179863,76.1014493 506.179863,64.1057971 C506.179863,53.0130435 499.08566,44.5 489.798703,43.0811594 C498.182761,41.2753623 504.503051,34.0521739 504.503051,23.3463768 C504.503051,13.2855072 496.763921,1.41884058 478.963921,1.41884058 L426.72479,1.41884058 L426.72479,87.4521739 L480.769718,87.4521739 Z M472.901602,33.1492754 L452.779863,33.1492754 L452.779863,23.0884058 L472.901602,23.0884058 C475.610297,23.0884058 478.061022,25.0231884 478.061022,27.9898551 C478.061022,31.0855072 475.610297,33.1492754 472.901602,33.1492754 L472.901602,33.1492754 Z M473.675515,65.7826087 L452.779863,65.7826087 L452.779863,54.8188406 L473.675515,54.8188406 C477.416095,54.8188406 479.737834,57.2695652 479.737834,60.3652174 C479.737834,63.5898551 477.416095,65.7826087 473.675515,65.7826087 L473.675515,65.7826087 Z M585.967582,87.4521739 L585.967582,66.1084668 L546.755988,66.1084668 L546.755988,53.9770404 L585.064683,53.9770404 L585.064683,33.9910755 L546.755988,33.9910755 L546.755988,22.7625477 L585.967582,22.7625477 L585.967582,1.41884058 L520.700915,1.41884058 L520.700915,87.4521739 L585.967582,87.4521739 Z M689.264607,87.4521739 L657.534172,1.41884058 L624.771854,1.41884058 L593.041419,87.4521739 L622.5791,87.4521739 L625.674752,77.3913043 L656.631274,77.3913043 L659.726926,87.4521739 L689.264607,87.4521739 Z M648.987185,54.6898551 L631.961098,54.6898551 L640.474142,26.957971 L648.987185,54.6898551 Z M799.458963,87.4521739 L799.458963,1.41884058 L763.472006,1.41884058 L748.380702,42.6942029 L733.289397,1.41884058 L697.302441,1.41884058 L697.302441,87.4521739 L723.357513,87.4521739 L723.357513,35.7289855 L742.576354,87.4521739 L754.18505,87.4521739 L773.40389,35.7289855 L773.40389,87.4521739 L799.458963,87.4521739 Z" id="logotype" fill="#FFFFFF"></path>
    </g>
</svg>