<?xml version="1.0" encoding="UTF-8" standalone="no"?>
<svg width="1179px" height="132px" viewBox="0 0 1179 132" version="1.1" xmlns="http://www.w3.org/2000/svg" xmlns:xlink="http://www.w3.org/1999/xlink">
    <!-- Generator: Sketch 3.8.3 (29802) - http://www.bohemiancoding.com/sketch -->
    <title>logotype-b</title>
    <desc>Created with Sketch.</desc>
    <defs></defs>
    <g id="Page-1" stroke="none" stroke-width="1" fill="none" fill-rule="evenodd">
        <path d="M151.37,128.82 L151.37,2.09 L98.36,2.09 L76.13,62.89 L53.9,2.09 L0.89,2.09 L0.89,128.82 L39.27,128.82 L39.27,52.63 L67.58,128.82 L84.68,128.82 L112.99,52.63 L112.99,128.82 L151.37,128.82 Z M240.4,131.1 C279.54,131.1 309.75,104.5 309.75,65.55 C309.75,26.6 279.54,0 240.4,0 C201.26,0 171.05,26.6 171.05,65.55 C171.05,104.5 201.26,131.1 240.4,131.1 L240.4,131.1 Z M240.4,97.28 C221.97,97.28 210,83.22 210,65.55 C210,47.88 221.97,33.82 240.4,33.82 C258.83,33.82 270.8,47.88 270.8,65.55 C270.8,83.22 258.83,97.28 240.4,97.28 L240.4,97.28 Z M461.29,65.55 C461.29,26.6 431.08,0 391.94,0 C352.8,0 322.59,26.6 322.59,65.55 C322.59,104.5 352.8,131.1 391.94,131.1 C431.08,131.1 461.29,104.5 461.29,65.55 Z M391.94,97.28 C373.51,97.28 361.54,83.22 361.54,65.55 C361.54,47.88 373.51,33.82 391.94,33.82 C410.37,33.82 422.34,47.88 422.34,65.55 C422.34,83.22 410.37,97.28 391.94,97.28 L391.94,97.28 Z M602.95,128.82 L602.95,2.09 L564.57,2.09 L564.57,62.13 L520.49,2.09 L480.97,2.09 L480.97,128.82 L519.35,128.82 L519.35,64.6 L566.09,128.82 L602.95,128.82 Z M709.08,128.82 C734.54,128.82 746.51,112.1 746.51,94.43 C746.51,78.09 736.06,65.55 722.38,63.46 C734.73,60.8 744.04,50.16 744.04,34.39 C744.04,19.57 732.64,2.09 706.42,2.09 L629.47,2.09 L629.47,128.82 L709.08,128.82 Z M697.49,48.83 L667.85,48.83 L667.85,34.01 L697.49,34.01 C701.48,34.01 705.09,36.86 705.09,41.23 C705.09,45.79 701.48,48.83 697.49,48.83 L697.49,48.83 Z M698.63,96.9 L667.85,96.9 L667.85,80.75 L698.63,80.75 C704.14,80.75 707.56,84.36 707.56,88.92 C707.56,93.67 704.14,96.9 698.63,96.9 L698.63,96.9 Z M864.04,128.82 L864.04,97.38 L806.28,97.38 L806.28,79.51 L862.71,79.51 L862.71,50.07 L806.28,50.07 L806.28,33.53 L864.04,33.53 L864.04,2.09 L767.9,2.09 L767.9,128.82 L864.04,128.82 Z M1016.2,128.82 L969.46,2.09 L921.2,2.09 L874.46,128.82 L917.97,128.82 L922.53,114 L968.13,114 L972.69,128.82 L1016.2,128.82 Z M956.87,80.56 L931.79,80.56 L944.33,39.71 L956.87,80.56 Z M1178.52,128.82 L1178.52,2.09 L1125.51,2.09 L1103.28,62.89 L1081.05,2.09 L1028.04,2.09 L1028.04,128.82 L1066.42,128.82 L1066.42,52.63 L1094.73,128.82 L1111.83,128.82 L1140.14,52.63 L1140.14,128.82 L1178.52,128.82 Z" id="logotext-copy-3" fill="#000000"></path>
    </g>
</svg>