<?xml version="1.0" encoding="UTF-8" standalone="no"?>
<svg width="1178px" height="132px" viewBox="0 0 1178 132" version="1.1" xmlns="http://www.w3.org/2000/svg" xmlns:xlink="http://www.w3.org/1999/xlink">
    <!-- Generator: Sketch 3.8.3 (29802) - http://www.bohemiancoding.com/sketch -->
    <title>MOONBEAM</title>
    <desc>Created with Sketch.</desc>
    <defs></defs>
    <g id="Page-1" stroke="none" stroke-width="1" fill="none" fill-rule="evenodd">
        <path d="M150.74,129 L150.74,2.27 L97.73,2.27 L75.5,63.07 L53.27,2.27 L0.26,2.27 L0.26,129 L38.64,129 L38.64,52.81 L66.95,129 L84.05,129 L112.36,52.81 L112.36,129 L150.74,129 Z M239.77,131.28 C278.91,131.28 309.12,104.68 309.12,65.73 C309.12,26.78 278.91,0.18 239.77,0.18 C200.63,0.18 170.42,26.78 170.42,65.73 C170.42,104.68 200.63,131.28 239.77,131.28 L239.77,131.28 Z M239.77,97.46 C221.34,97.46 209.37,83.4 209.37,65.73 C209.37,48.06 221.34,34 239.77,34 C258.2,34 270.17,48.06 270.17,65.73 C270.17,83.4 258.2,97.46 239.77,97.46 L239.77,97.46 Z M460.66,65.73 C460.66,26.78 430.45,0.18 391.31,0.18 C352.17,0.18 321.96,26.78 321.96,65.73 C321.96,104.68 352.17,131.28 391.31,131.28 C430.45,131.28 460.66,104.68 460.66,65.73 Z M391.31,97.46 C372.88,97.46 360.91,83.4 360.91,65.73 C360.91,48.06 372.88,34 391.31,34 C409.74,34 421.71,48.06 421.71,65.73 C421.71,83.4 409.74,97.46 391.31,97.46 L391.31,97.46 Z M602.32,129 L602.32,2.27 L563.94,2.27 L563.94,62.31 L519.86,2.27 L480.34,2.27 L480.34,129 L518.72,129 L518.72,64.78 L565.46,129 L602.32,129 Z M708.45,129 C733.91,129 745.88,112.28 745.88,94.61 C745.88,78.27 735.43,65.73 721.75,63.64 C734.1,60.98 743.41,50.34 743.41,34.57 C743.41,19.75 732.01,2.27 705.79,2.27 L628.84,2.27 L628.84,129 L708.45,129 Z M696.86,49.01 L667.22,49.01 L667.22,34.19 L696.86,34.19 C700.85,34.19 704.46,37.04 704.46,41.41 C704.46,45.97 700.85,49.01 696.86,49.01 L696.86,49.01 Z M698,97.08 L667.22,97.08 L667.22,80.93 L698,80.93 C703.51,80.93 706.93,84.54 706.93,89.1 C706.93,93.85 703.51,97.08 698,97.08 L698,97.08 Z M863.41,129 L863.41,97.56 L805.65,97.56 L805.65,79.69 L862.08,79.69 L862.08,50.25 L805.65,50.25 L805.65,33.71 L863.41,33.71 L863.41,2.27 L767.27,2.27 L767.27,129 L863.41,129 Z M1014.57,129 L967.83,2.27 L919.57,2.27 L872.83,129 L916.34,129 L920.9,114.18 L966.5,114.18 L971.06,129 L1014.57,129 Z M956.24,80.74 L931.16,80.74 L943.7,39.89 L956.24,80.74 Z M1177.89,129 L1177.89,2.27 L1124.88,2.27 L1102.65,63.07 L1080.42,2.27 L1027.41,2.27 L1027.41,129 L1065.79,129 L1065.79,52.81 L1094.1,129 L1111.2,129 L1139.51,52.81 L1139.51,129 L1177.89,129 Z" id="MOONBEAM" fill="#FFFFFF"></path>
    </g>
</svg>