<?xml version="1.0" encoding="UTF-8" standalone="no"?>
<svg width="354px" height="329px" viewBox="0 0 354 329" version="1.1" xmlns="http://www.w3.org/2000/svg" xmlns:xlink="http://www.w3.org/1999/xlink">
    <!-- Generator: Sketch 3.8.3 (29802) - http://www.bohemiancoding.com/sketch -->
    <title>logo</title>
    <desc>Created with Sketch.</desc>
    <defs></defs>
    <g id="Page-1" stroke="none" stroke-width="1" fill="none" fill-rule="evenodd">
        <path d="M297.645732,261.124581 C267.743368,302.258046 219.244643,329 164.5,329 C73.6491587,329 0,255.350841 0,164.5 C0,73.6491587 73.6491587,0 164.5,0 C177.653072,0 190.445593,1.54370495 202.706269,4.45982199 C122.417626,7.31489762 59.1282821,73.341518 59.128281,154.363593 C59.1282808,171.696845 62.7720114,187.444526 75.6926922,198.208915 C102.546358,77.8251914 153.162161,35.9332633 164.274091,35 C167.542503,44.2549744 159.05,57.4816074 159.05,57.4816074 C159.05,57.4816074 184.960789,52.5866118 205.327375,66.0911934 C205.327375,66.0911934 222.464751,57.4816069 238.347943,62.6954206 C235.333027,71.3723884 220.26307,78.3448431 220.26307,78.3448431 C224.627525,84.1868317 226.968276,89.4996604 228.202315,93.1845004 C229.280804,96.4048702 229.513994,99.9008636 229.513994,99.9008636 L303.073244,110.497162 L229.513994,126.144096 C229.513994,126.144096 229.513998,133.477236 225.540207,151.526382 C223.386272,161.309654 216.888726,195.481209 218.253561,207.664456 C219.618396,219.847702 213.876823,229.71008 206.911077,231.969179 C199.945332,234.228279 191.001972,235.095133 180.321423,229.710074 C169.640873,224.325015 168.452573,216.772872 168.452573,216.772872 C168.452573,216.772872 168.452565,208.405594 168.452569,198.208918 C168.452573,188.012242 159.05,171.696838 159.05,171.696838 C159.05,171.696838 141.944832,165.170107 138.733944,152.907198 C135.523056,140.644289 138.733951,129.205995 138.733951,129.205995 C138.733951,129.205995 129.786952,144.699332 132.527798,156.923937 C135.268644,169.148543 153.870736,176.990765 153.870736,176.990765 C153.870736,176.990765 159.96618,186.864341 162.721214,200.522799 C163.050518,202.155369 162.721213,219.723376 162.721213,219.723376 C162.721213,219.723376 162.3088,227.569174 175.975222,234.852833 C190.934179,242.82536 195.873932,239.3012 204.327378,239.3012 C204.327378,239.3012 218.157716,291.113136 297.645732,261.124581 Z M294.769526,212.509694 L263.63961,198.63961 L294.769526,184.769526 L308.63961,153.63961 L322.509694,184.769526 L353.63961,198.63961 L322.509694,212.509694 L308.63961,243.63961 L294.769526,212.509694 Z M190.044141,217.590358 C190.044141,217.590358 187.128281,217.590359 187.128281,212.811222 C187.128281,208.032085 187.128281,208.368726 187.128281,208.368726 C187.128281,208.368726 190.044141,208.368726 190.044141,212.811222 L190.044141,217.590358 Z M212.128281,217.590358 C212.128281,217.590358 215.044141,217.590359 215.044141,212.811222 C215.044141,208.032085 215.044141,208.368726 215.044141,208.368726 C215.044141,208.368726 212.128281,208.368726 212.128281,212.811222 L212.128281,217.590358 Z M171.47598,129.046157 C174.078798,132.948006 173.284871,139.083013 173.360592,140.44995 C173.432504,141.74812 161.450604,131.962243 161.450604,131.962243 L160.088464,119.84331 C160.754594,120.934686 168.306225,124.294421 171.47598,129.046157 Z" id="logo-copy" fill="#FFFFFF"></path>
    </g>
</svg>